<svg
   viewBox="0 0 38.30777 45.146763"
   version="1.1"
   xmlns="http://www.w3.org/2000/svg"
   xmlns:svg="http://www.w3.org/2000/svg"
>
   <g
      transform="translate(-115.92433,-103.79318)"
   >
      <path
         style="stroke-width:2.12424"
         d="m 118.26794,103.79318 c -0.60019,0 -1.1918,0.29828 -1.65132,0.88768 -0.91907,1.17883 -0.91907,3.07151 0,4.25033 l 13.5701,17.44351 -13.59015,17.44416 c -0.90031,1.15476 -0.89896,3.08221 0.0201,4.23698 0.91906,1.1788 2.39435,1.1788 3.31341,0 l 15.58807,-19.99346 c 0.7315,-0.93825 0.7315,-2.44916 0,-3.38742 l -15.58807,-19.9941 c -0.45955,-0.5894 -1.06187,-0.88768 -1.66208,-0.88768 z m 18.17607,0 c -0.6002,0 -1.20254,0.29828 -1.66206,0.88768 -0.91906,1.17883 -0.91906,3.07151 0,4.25033 l 13.58013,17.44351 -13.59947,17.44416 c -0.90029,1.15476 -0.8997,3.08221 0.0194,4.23698 0.91907,1.1788 2.39504,1.1788 3.31411,0 l 15.58736,-19.99346 c 0.73151,-0.93825 0.73151,-2.44916 0,-3.38742 l -15.58741,-19.9941 c -0.45953,-0.5894 -1.05182,-0.88768 -1.65204,-0.88768 z"
      />
   </g>
</svg>
