<svg
   viewBox="0 0 67.750381 81.862709"
   version="1.1"
   xmlns="http://www.w3.org/2000/svg"
   xmlns:svg="http://www.w3.org/2000/svg"
>
   <g transform="translate(-46.343942,-76.683172)">
      <path
         style="stroke-linecap:round;stroke-linejoin:round;stroke-miterlimit:0"
         d="m 60.909977,76.683175 v 8.252726 h -5.549015 c -4.392632,0 -8.029538,1.941017 -8.843905,4.528406 h -0.173116 v 1.097607 1.121895 10.153901 H 114.04058 V 91.683809 90.561914 89.464307 h -0.17311 c -0.81433,-2.587389 -4.45128,-4.528406 -8.84391,-4.528406 h -5.974825 v -8.252726 h -7.464661 v 8.252726 H 68.374121 V 76.683175 Z M 46.362028,106.45603 v 26.93841 h 0.03462 v 19.10168 a 6.4756203,6.0501073 0 0 0 6.476091,6.04976 h 54.709321 a 6.4756203,6.0501073 0 0 0 6.47506,-6.04976 v -19.10168 h 0.0372 v -26.93841 z m 13.283944,7.83467 h 2.85719 c 2.365235,0 4.269506,2.06186 4.269506,4.62349 v 3.50624 c 0,2.56163 -1.904271,4.62401 -4.269506,4.62401 h -2.85719 c -2.365224,0 -4.26899,-2.06238 -4.26899,-4.62401 v -3.50624 c 0,-2.56163 1.903766,-4.62349 4.26899,-4.62349 z m 39.394494,0.15864 h 2.857194 c 2.36523,0 4.2695,2.06187 4.2695,4.6235 v 3.50624 c 0,2.56163 -1.90427,4.62401 -4.2695,4.62401 h -2.857194 c -2.365235,0 -4.269507,-2.06238 -4.269507,-4.62401 v -3.50624 c 0,-2.56163 1.904272,-4.6235 4.269507,-4.6235 z m -19.951237,0.0785 h 2.85719 c 2.365236,0 4.269507,2.06187 4.269507,4.62349 v 3.50625 c 0,2.56163 -1.904271,4.62401 -4.269507,4.62401 h -2.85719 c -2.365234,0 -4.269507,-2.06238 -4.269507,-4.62401 v -3.50625 c 0,-2.56162 1.904273,-4.62349 4.269507,-4.62349 z m -19.541443,19.80448 h 2.85719 c 2.365236,0 4.270024,2.06186 4.270024,4.62349 v 3.50676 c 0,2.56163 -1.904788,4.62349 -4.270024,4.62349 h -2.85719 c -2.365223,0 -4.26899,-2.06186 -4.26899,-4.62349 v -3.50676 c 0,-2.56163 1.903767,-4.62349 4.26899,-4.62349 z m 20.039604,0 h 2.85719 c 2.365236,0 4.26899,2.06186 4.26899,4.62349 v 3.50676 c 0,2.56163 -1.903754,4.62349 -4.26899,4.62349 h -2.85719 c -2.365235,0 -4.270023,-2.06186 -4.270023,-4.62349 v -3.50676 c 0,-2.56163 1.904788,-4.62349 4.270023,-4.62349 z m 19.302181,0 h 2.857189 c 2.3652,0 4.26951,2.06186 4.26951,4.62349 v 3.50676 c 0,2.56163 -1.90431,4.62349 -4.26951,4.62349 h -2.857189 c -2.365199,0 -4.26899,-2.06186 -4.26899,-4.62349 v -3.50676 c 0,-2.56163 1.903791,-4.62349 4.26899,-4.62349 z"
      />
   </g>
</svg>
